<svg xmlns="http://www.w3.org/2000/svg" xmlns:xlink="http://www.w3.org/1999/xlink" width="500" zoomAndPan="magnify" viewBox="0 0 375 374.999991" height="500" preserveAspectRatio="xMidYMid meet" version="1.0"><defs><g/><clipPath id="6eda8ffa56"><path d="M 17.25 0 L 357.75 0 C 362.324219 0 366.710938 1.816406 369.949219 5.050781 C 373.183594 8.289062 375 12.675781 375 17.25 L 375 357.75 C 375 362.324219 373.183594 366.710938 369.949219 369.949219 C 366.710938 373.183594 362.324219 375 357.75 375 L 17.25 375 C 12.675781 375 8.289062 373.183594 5.050781 369.949219 C 1.816406 366.710938 0 362.324219 0 357.75 L 0 17.25 C 0 12.675781 1.816406 8.289062 5.050781 5.050781 C 8.289062 1.816406 12.675781 0 17.25 0 " clip-rule="nonzero"/></clipPath><clipPath id="6911a15e72"><path d="M 37.5 37.5 L 150 37.5 L 150 150 L 37.5 150 Z M 37.5 37.5 " clip-rule="nonzero"/></clipPath><clipPath id="2fef6afc50"><path d="M 54.75 37.5 L 132.75 37.5 C 137.324219 37.5 141.710938 39.316406 144.949219 42.550781 C 148.183594 45.789062 150 50.175781 150 54.75 L 150 132.75 C 150 137.324219 148.183594 141.710938 144.949219 144.949219 C 141.710938 148.183594 137.324219 150 132.75 150 L 54.75 150 C 50.175781 150 45.789062 148.183594 42.550781 144.949219 C 39.316406 141.710938 37.5 137.324219 37.5 132.75 L 37.5 54.75 C 37.5 50.175781 39.316406 45.789062 42.550781 42.550781 C 45.789062 39.316406 50.175781 37.5 54.75 37.5 " clip-rule="nonzero"/></clipPath><clipPath id="9421f17ca9"><path d="M 229 42 L 333 42 L 333 146 L 229 146 Z M 229 42 " clip-rule="nonzero"/></clipPath><clipPath id="62815a31f4"><path d="M 225 94.3125 L 281.746094 37.570312 L 337.429688 93.253906 L 280.6875 150 Z M 225 94.3125 " clip-rule="nonzero"/></clipPath><clipPath id="37cd937d61"><path d="M 225 94.3125 L 281.746094 37.570312 L 337.429688 93.253906 L 280.6875 150 Z M 225 94.3125 " clip-rule="nonzero"/></clipPath><clipPath id="567e6c3213"><path d="M 295 201 L 344 201 L 344 260 L 295 260 Z M 295 201 " clip-rule="nonzero"/></clipPath><clipPath id="ceaa8536a8"><path d="M 288.972656 209.617188 L 308.542969 193.269531 L 353.738281 247.375 L 334.167969 263.722656 Z M 288.972656 209.617188 " clip-rule="nonzero"/></clipPath><clipPath id="bad8647b58"><path d="M 288.972656 209.617188 L 308.542969 193.269531 L 353.738281 247.375 L 334.167969 263.722656 Z M 288.972656 209.617188 " clip-rule="nonzero"/></clipPath><clipPath id="4bd9fd85d2"><path d="M 39 201 L 87 201 L 87 260 L 39 260 Z M 39 201 " clip-rule="nonzero"/></clipPath><clipPath id="840343c4af"><path d="M 73.878906 192.957031 L 93.535156 209.199219 L 48.636719 263.550781 L 28.976562 247.3125 Z M 73.878906 192.957031 " clip-rule="nonzero"/></clipPath><clipPath id="bb285c6634"><path d="M 93.746094 209.371094 L 74.085938 193.128906 L 29.1875 247.484375 L 48.84375 263.722656 Z M 93.746094 209.371094 " clip-rule="nonzero"/></clipPath></defs><g clip-path="url(#6eda8ffa56)"><path fill="#000000" d="M 0 0 L 374.414062 0 L 374.414062 374.414062 L 0 374.414062 Z M 0 0 " fill-opacity="1" fill-rule="nonzero"/></g><g clip-path="url(#6911a15e72)"><g clip-path="url(#2fef6afc50)"><path fill="#ffffff" d="M 37.5 37.5 L 150 37.5 L 150 150 L 37.5 150 Z M 37.5 37.5 " fill-opacity="1" fill-rule="nonzero"/></g></g><g clip-path="url(#9421f17ca9)"><g clip-path="url(#62815a31f4)"><g clip-path="url(#37cd937d61)"><path fill="#ffffff" d="M 274.238281 45.207031 C 272.535156 46.90625 271.496094 49.269531 271.496094 51.792969 L 271.460938 84.03125 L 239.28125 84.007812 C 236.699219 84.0625 234.394531 85.046875 232.695312 86.75 C 230.992188 88.449219 229.949219 90.8125 229.953125 93.335938 L 229.953125 94.105469 C 229.957031 99.269531 234.132812 103.445312 239.292969 103.449219 L 271.476562 103.46875 L 271.550781 135.707031 C 271.554688 140.867188 275.730469 145.042969 280.894531 145.046875 L 281.660156 145.046875 C 284.1875 145.050781 286.546875 144.007812 288.25 142.304688 C 289.953125 140.605469 290.992188 138.242188 290.992188 135.71875 L 290.96875 103.539062 L 323.152344 103.558594 C 325.675781 103.558594 328.039062 102.519531 329.738281 100.816406 C 331.441406 99.117188 332.480469 96.753906 332.480469 94.230469 L 332.480469 93.460938 C 332.476562 88.296875 328.300781 84.121094 323.136719 84.117188 L 290.902344 84.042969 L 290.882812 51.863281 C 290.878906 46.699219 286.703125 42.523438 281.539062 42.519531 L 280.769531 42.519531 C 278.246094 42.519531 275.882812 43.558594 274.238281 45.207031 Z M 274.238281 45.207031 " fill-opacity="1" fill-rule="nonzero"/></g></g></g><g clip-path="url(#567e6c3213)"><g clip-path="url(#ceaa8536a8)"><g clip-path="url(#bad8647b58)"><path fill="#b2edef" d="M 338.382812 252.21875 C 338.796875 250.40625 338.546875 248.636719 337.929688 246.902344 C 337.265625 245.039062 336.304688 243.324219 335.125 241.738281 C 333.589844 239.675781 332.019531 237.640625 330.472656 235.585938 C 329.441406 234.214844 328.515625 232.773438 327.652344 231.289062 C 326.71875 229.683594 326.378906 227.996094 326.882812 226.179688 C 327.023438 225.667969 327.117188 225.132812 327.183594 224.601562 C 327.238281 224.164062 327.277344 223.714844 327.230469 223.28125 C 327.105469 222.152344 326.125 221.128906 325.042969 220.921875 C 323.980469 220.71875 322.914062 221.265625 322.398438 222.3125 C 322.273438 222.566406 322.15625 222.820312 322.011719 223.066406 C 321.574219 223.828125 320.851562 224.125 320.011719 223.847656 C 319.660156 223.730469 319.320312 223.53125 319.007812 223.324219 C 318.234375 222.808594 317.621094 222.121094 317.054688 221.390625 C 315.957031 219.984375 315.039062 218.460938 314.238281 216.871094 C 313.425781 215.261719 312.671875 213.617188 311.878906 211.996094 C 310.5625 209.3125 308.832031 206.949219 306.472656 205.078125 C 305.371094 204.207031 304.199219 203.453125 302.824219 203.097656 C 300.460938 202.484375 298.382812 203.433594 297.21875 205.65625 C 296.964844 206.136719 296.84375 206.664062 296.851562 207.210938 C 296.867188 208.414062 297.785156 209.410156 298.96875 209.488281 C 299.859375 209.550781 300.5625 209.199219 301.066406 208.460938 C 301.238281 208.210938 301.398438 207.953125 301.558594 207.707031 C 302.207031 207.820312 302.675781 208.164062 303.125 208.503906 C 304.289062 209.394531 305.3125 210.421875 306.144531 211.644531 C 306.859375 212.703125 307.445312 213.824219 307.980469 214.972656 C 308.902344 216.957031 309.808594 218.945312 310.914062 220.839844 C 311.875 222.488281 312.894531 224.09375 314.191406 225.503906 C 314.925781 226.300781 315.742188 227 316.660156 227.582031 C 318.066406 228.472656 319.582031 228.933594 321.257812 228.757812 C 321.402344 228.742188 321.554688 228.753906 321.632812 228.753906 C 321.894531 229.734375 322.097656 230.664062 322.390625 231.5625 C 322.804688 232.832031 323.484375 233.984375 324.195312 235.113281 C 325.667969 237.453125 327.308594 239.671875 329.027344 241.835938 C 330.09375 243.179688 331.152344 244.53125 332.042969 245.996094 C 332.640625 246.976562 333.140625 247.996094 333.457031 249.101562 C 333.71875 250.015625 333.722656 250.914062 333.375 251.800781 C 333.039062 252.652344 332.558594 253.367188 331.578125 253.570312 C 331.488281 253.589844 331.394531 253.617188 331.3125 253.660156 C 329.578125 254.53125 329.535156 256.511719 330.566406 257.554688 C 331.199219 258.199219 331.949219 258.433594 332.8125 258.277344 C 334.265625 258.019531 335.457031 257.300781 336.417969 256.195312 C 337.386719 255.078125 338.011719 253.789062 338.382812 252.21875 Z M 310.953125 204.574219 C 313.804688 206.808594 315.757812 209.621094 317.265625 212.789062 C 318.097656 214.53125 318.953125 216.269531 319.859375 217.972656 C 320.382812 218.949219 321.035156 219.859375 321.632812 220.792969 C 321.699219 220.898438 321.796875 220.980469 321.914062 221.109375 C 322.070312 220.980469 322.207031 220.871094 322.335938 220.753906 C 323.101562 220.0625 323.992188 219.753906 325.027344 219.855469 C 326.320312 219.980469 327.609375 220.132812 328.902344 220.214844 C 331.164062 220.355469 332.324219 222.4375 332.375 223.980469 C 332.390625 224.511719 332.320312 225.050781 332.246094 225.582031 C 332.164062 226.175781 332.035156 226.761719 331.917969 227.351562 C 331.710938 228.414062 331.835938 229.445312 332.339844 230.398438 C 332.855469 231.378906 333.378906 232.367188 334.015625 233.273438 C 335.328125 235.140625 336.71875 236.957031 338.070312 238.800781 C 339.101562 240.207031 340.164062 241.59375 341.136719 243.042969 C 342.203125 244.632812 342.988281 246.367188 343.457031 248.226562 C 344.21875 251.269531 343.644531 254.0625 341.859375 256.59375 C 340.722656 258.203125 339.195312 259.246094 337.234375 259.609375 C 336.867188 259.675781 336.480469 259.707031 336.109375 259.675781 C 334.722656 259.566406 333.335938 259.441406 331.953125 259.289062 C 330.777344 259.160156 329.871094 258.582031 329.296875 257.523438 C 328.320312 255.726562 329.058594 253.570312 330.925781 252.761719 C 331.011719 252.722656 331.101562 252.6875 331.195312 252.671875 C 331.902344 252.542969 332.234375 252.039062 332.46875 251.417969 C 332.738281 250.703125 332.703125 249.992188 332.484375 249.277344 C 332.167969 248.242188 331.6875 247.28125 331.117188 246.359375 C 330.140625 244.789062 328.96875 243.367188 327.839844 241.914062 C 326.238281 239.859375 324.691406 237.769531 323.316406 235.554688 C 322.226562 233.796875 321.269531 231.976562 320.90625 229.882812 C 320.660156 229.839844 320.449219 229.785156 320.234375 229.769531 C 318.125 229.632812 316.347656 228.722656 314.765625 227.375 C 313.472656 226.277344 312.429688 224.964844 311.480469 223.5625 C 309.898438 221.210938 308.636719 218.691406 307.464844 216.121094 C 306.804688 214.679688 306.144531 213.234375 305.191406 211.953125 C 304.871094 211.523438 304.507812 211.125 304.167969 210.71875 C 302.34375 210.878906 300.5625 210.566406 298.777344 210.378906 C 296.929688 210.179688 295.792969 208.597656 295.957031 206.734375 C 296.140625 204.722656 298.21875 201.941406 301.464844 201.976562 C 301.84375 201.980469 302.222656 202.019531 302.597656 202.054688 C 303.542969 202.136719 304.484375 202.261719 305.433594 202.3125 C 307.230469 202.402344 308.808594 203.078125 310.273438 204.082031 C 310.484375 204.222656 310.6875 204.375 310.953125 204.574219 " fill-opacity="1" fill-rule="nonzero"/></g></g></g><g fill="#ffa7e4" fill-opacity="1"><g transform="translate(115.427407, 288.881671)"><g><path d="M 4.90625 2.347656 L 10.78125 5.085938 C 12.773438 6.015625 14.945312 5.066406 15.785156 3.265625 L 30.308594 -27.867188 C 31.238281 -29.855469 30.476562 -31.941406 28.488281 -32.871094 L 22.613281 -35.609375 C 20.761719 -36.472656 18.585938 -35.757812 17.65625 -33.769531 L 3.132812 -2.636719 C 2.292969 -0.835938 3.058594 1.484375 4.90625 2.347656 Z M 4.90625 2.347656 "/></g></g></g><path stroke-linecap="butt" transform="matrix(0.24727, 0.115343, -0.115343, 0.24727, 134.147619, 250.108313)" fill="none" stroke-linejoin="miter" d="M 24.41744 153.192613 L 48.186421 153.179245 C 56.230786 153.186629 61.979937 146.681858 61.986334 139.380435 L 61.989854 13.472831 C 61.984264 5.434518 56.23541 -0.319698 48.17807 -0.32103 L 24.416012 -0.326689 C 16.928637 -0.325332 10.802514 5.439029 10.79513 13.483394 L 10.804584 139.384946 C 10.798187 146.686368 16.930065 153.193969 24.41744 153.192613 Z M 24.41744 153.192613 " stroke="#ff66c4" stroke-width="3.114264" stroke-opacity="1" stroke-miterlimit="4"/><g fill="#5ce1e6" fill-opacity="1"><g transform="translate(59.019864, 253.089166)"><g><path d="M 63.660156 -3.972656 L 64.773438 -5.367188 C 64.921875 -5.519531 65.027344 -5.699219 65.160156 -5.921875 C 66.128906 -7.582031 65.550781 -9.78125 63.894531 -10.753906 L 58.023438 -14.183594 L 57.976562 -14.210938 L 57.886719 -14.261719 C 56.382812 -15.082031 54.519531 -14.671875 53.457031 -13.367188 L 43.828125 -2.039062 L 43.125 -1.246094 L 43.320312 -1.792969 L 49.09375 -15.675781 C 49.785156 -17.375 49.238281 -19.320312 47.625 -20.261719 L 41.171875 -24.035156 C 39.605469 -24.953125 37.597656 -24.503906 36.5 -23.039062 L 26.53125 -10.40625 L 27.066406 -11.839844 L 32.257812 -25.761719 C 32.871094 -27.324219 32.273438 -29.179688 30.820312 -30.089844 L 24.859375 -33.574219 C 23.113281 -34.59375 20.910156 -34.019531 19.941406 -32.359375 C 19.808594 -32.136719 19.785156 -32.089844 19.644531 -31.75 L 18.125 -27.710938 L 13.160156 -14.796875 L 7.515625 0.00390625 C 6.753906 2.023438 7.617188 4.453125 9.589844 5.605469 L 17.34375 10.140625 C 19.429688 11.300781 22.023438 10.773438 23.472656 8.914062 L 30.726562 -0.617188 C 31.035156 -1.039062 31.488281 -1.195312 31.933594 -0.933594 C 32.339844 -0.699219 32.496094 -0.246094 32.347656 0.210938 L 27.816406 11.871094 C 27.144531 13.945312 27.964844 16.347656 29.9375 17.5 L 37.734375 22.0625 C 39.777344 23.195312 42.300781 22.683594 43.765625 20.898438 Z M 63.660156 -3.972656 "/></g></g></g><path stroke-linecap="butt" transform="matrix(0.233853, 0.136717, -0.136717, 0.233853, 81.716447, 216.847368)" fill="none" stroke-linejoin="miter" d="M 197.264865 21.71352 L 198.189682 15.209577 C 198.38618 14.459954 198.372959 13.665899 198.376208 12.728584 C 198.382859 5.625563 192.487539 -0.315443 185.372069 -0.314816 L 160.244226 -0.323824 L 160.063619 -0.31846 L 159.695129 -0.320181 C 153.373907 -0.132441 148.177152 4.693024 147.246777 10.816028 L 137.646501 64.853028 L 136.902845 68.695372 L 136.486649 66.583449 L 129.045184 11.568465 C 128.057833 4.879525 122.727895 -0.322972 115.80031 -0.31526 L 88.204115 -0.317738 C 81.501761 -0.324775 75.934794 4.86746 75.190776 11.566372 L 66.95284 70.419405 L 65.967603 64.848386 L 56.573566 10.807886 C 55.63659 4.690834 50.260306 -0.133787 43.933528 -0.326988 L 18.432022 -0.317989 C 10.999964 -0.316019 5.048616 5.618754 5.049243 12.734224 C 5.058443 13.66426 5.051358 13.852145 5.243658 15.20966 L 7.908819 30.940015 L 16.145071 81.314386 L 25.739851 139.012594 C 27.094745 146.873079 34.353136 153.002726 42.819036 152.997684 L 75.940483 152.9938 C 84.789237 152.815044 92.028191 146.311246 93.200058 137.65841 L 98.539784 93.762595 C 98.776684 91.85349 99.892297 90.53312 101.818829 90.542682 C 103.537749 90.539988 104.897572 91.665943 105.276035 93.399034 L 112.527823 139.003718 C 114.258485 146.878373 121.361168 152.998828 129.794892 152.995893 L 163.156126 153.002159 C 171.765092 152.813253 178.868258 146.505767 180.183577 138.069735 Z M 197.264865 21.71352 " stroke="#b2edef" stroke-width="3.114264" stroke-opacity="1" stroke-miterlimit="4"/><g fill="#5ce1e6" fill-opacity="1"><g transform="translate(148.865068, 303.908381)"><g><path d="M 26.765625 -37.160156 L 13.046875 -39.75 C 10.902344 -40.152344 9.035156 -38.65625 8.679688 -36.769531 L 2.414062 -3.558594 C 2.066406 -1.722656 3.242188 0.453125 5.386719 0.855469 L 19.109375 3.445312 C 27.117188 4.957031 34.460938 -0.367188 35.914062 -8.070312 L 38.234375 -20.363281 C 39.683594 -28.066406 34.777344 -35.648438 26.765625 -37.160156 Z M 24.390625 -15.316406 C 23.984375 -13.171875 22.125 -11.992188 20.035156 -12.386719 L 17.585938 -12.847656 C 17.226562 -12.914062 16.917969 -13.238281 17.035156 -13.851562 L 18.535156 -21.808594 C 18.660156 -22.472656 19.074219 -22.710938 19.433594 -22.644531 L 21.882812 -22.179688 C 23.972656 -21.785156 25.265625 -19.957031 24.851562 -17.765625 Z M 24.390625 -15.316406 "/></g></g></g><path stroke-linecap="butt" transform="matrix(0.266191, 0.0502132, -0.0502132, 0.266191, 148.705557, 260.38217)" fill="none" stroke-linejoin="miter" d="M 108.630939 -0.135608 L 57.063926 -0.13748 C 49.023224 -0.132198 43.264728 6.603797 43.275129 13.660333 L 43.263268 138.455649 C 43.267261 145.322624 49.026787 152.439288 57.067489 152.434007 L 108.634503 152.435879 C 138.71829 152.440068 161.68693 128.105824 161.684388 99.153253 L 161.689512 52.971217 C 161.684297 24.004475 138.714727 -0.131419 108.630939 -0.135608 Z M 114.954216 80.761489 C 114.945327 88.804865 109.010151 94.370868 101.14484 94.372414 L 91.972921 94.370964 C 90.623802 94.375988 89.265634 93.399518 89.256906 91.097247 L 89.267504 61.203021 C 89.255041 58.725359 90.619715 57.558105 91.968833 57.553081 L 101.140752 57.554531 C 109.006064 57.552985 114.950127 63.314122 114.947647 71.547059 Z M 114.954216 80.761489 " stroke="#b2edef" stroke-width="3.114264" stroke-opacity="1" stroke-miterlimit="4"/><g fill="#ffa7e4" fill-opacity="1"><g transform="translate(199.767034, 308.5469)"><g><path d="M 27.449219 -26.609375 L 18.113281 -25.9375 C 18.113281 -25.9375 17.015625 -25.859375 16.34375 -25.023438 C 15.761719 -24.355469 15.609375 -23.558594 15.644531 -23.085938 L 15.789062 -21.054688 C 15.890625 -19.644531 17.269531 -18.695312 18.675781 -18.796875 L 18.886719 -18.8125 L 20.035156 -18.894531 L 20.152344 -17.226562 C 20.308594 -15.035156 18.640625 -13.445312 16.449219 -13.289062 C 14.3125 -13.136719 12.414062 -14.78125 12.257812 -16.921875 L 11.550781 -26.777344 C 11.421875 -28.605469 12.785156 -30.796875 15.183594 -30.96875 C 16.589844 -31.070312 17.898438 -30.378906 18.539062 -29.480469 C 18.941406 -28.984375 19.257812 -28.957031 19.625 -28.980469 L 28.804688 -29.640625 C 29.0625 -29.660156 29.894531 -29.769531 30.523438 -30.5 C 31.253906 -31.285156 31.199219 -32.066406 31.175781 -32.378906 L 31.128906 -33.003906 C 31.078125 -33.734375 29.609375 -37.40625 26.917969 -39.832031 C 24.339844 -42.164062 20.640625 -44.046875 15.320312 -43.667969 L 12.554688 -43.46875 C 8.070312 -43.148438 3.902344 -40.59375 1.617188 -37.390625 C -0.425781 -34.464844 -1.332031 -30.992188 -1.109375 -27.914062 L -0.113281 -13.988281 C 0.160156 -10.179688 1.914062 -6.953125 3.890625 -4.945312 C 8.019531 -0.734375 12.878906 -0.242188 15.015625 -0.394531 L 19.085938 -0.6875 C 23.519531 -1.003906 27.480469 -3.492188 29.445312 -6.097656 C 31.601562 -8.925781 32.933594 -12.269531 32.640625 -16.339844 L 32.304688 -21.03125 C 32.042969 -24.683594 29.898438 -26.785156 27.449219 -26.609375 Z M 27.449219 -26.609375 "/></g></g></g><path stroke-linecap="butt" transform="matrix(0.27215, -0.0195222, 0.0195222, 0.27215, 196.842853, 265.593849)" fill="none" stroke-linejoin="miter" d="M 113.344047 62.931088 L 79.053353 62.940076 C 79.053353 62.940076 75.020235 62.937834 72.318386 65.786923 C 70.01553 68.076147 69.276162 70.979891 69.266456 72.715944 L 69.27541 80.194659 C 69.264669 85.346726 74.042254 89.177291 79.238184 89.176825 L 79.983808 89.187251 L 84.203588 89.18853 L 84.194591 95.316746 C 84.192155 103.354423 77.691019 108.744225 69.639063 108.740765 C 61.788048 108.737366 55.278274 102.24201 55.282697 94.376716 L 55.285525 58.120467 C 55.277352 51.43124 60.809154 43.747142 69.650598 43.749822 C 74.789409 43.745259 79.418354 46.64655 81.526697 50.070341 C 82.838869 51.987338 84.013851 52.215156 85.362301 52.225765 L 119.093008 52.219666 C 120.040598 52.215874 123.128236 51.992407 125.603535 49.500253 C 128.46445 46.834814 128.457169 43.934924 128.451388 42.814952 L 128.458204 40.518912 C 128.451886 37.805684 124.058804 24.012799 114.882627 14.469866 C 106.041935 5.252418 93.042253 -2.612737 73.478464 -2.609486 L 63.331409 -2.619701 C 46.810308 -2.613487 30.90484 5.618272 21.737695 16.759102 C 13.503141 26.904684 9.29489 39.348549 9.286358 50.672695 L 9.29228 101.81395 C 9.293139 115.808486 14.812766 128.103317 21.543482 135.920672 C 35.544231 152.440914 53.181318 155.485888 61.033357 155.475008 L 75.960179 155.483611 C 92.237498 155.474264 107.397282 147.43302 115.261219 138.452177 C 123.872048 128.663712 129.632582 116.790503 129.629979 101.819818 L 129.631118 84.595932 C 129.632125 71.175663 122.329314 62.92973 113.344047 62.931088 Z M 113.344047 62.931088 " stroke="#ff66c4" stroke-width="3.114264" stroke-opacity="1" stroke-miterlimit="4"/><g fill="#5ce1e6" fill-opacity="1"><g transform="translate(255.046236, 300.576471)"><g><path d="M 1.710938 -34.285156 L 11.238281 -38.785156 C 12.601562 -39.429688 13.195312 -41.089844 12.574219 -42.402344 L 10.089844 -47.660156 C 9.445312 -49.019531 7.808594 -49.566406 6.449219 -48.925781 L -12.746094 -39.851562 C -14.671875 -38.941406 -15.464844 -36.730469 -14.953125 -35.652344 L -0.515625 -5.097656 C 0.792969 -2.328125 3.007812 -1.535156 4.929688 -2.445312 L 24.128906 -11.515625 C 25.488281 -12.160156 26.105469 -13.773438 25.460938 -15.132812 L 22.976562 -20.390625 C 22.332031 -21.75 20.652344 -22.390625 19.292969 -21.75 L 9.765625 -17.246094 C 9.574219 -17.15625 9.367188 -17.230469 9.28125 -17.417969 L 7.859375 -20.421875 C 7.773438 -20.609375 7.847656 -20.820312 8.035156 -20.90625 L 14.933594 -24.167969 C 16.152344 -24.746094 16.71875 -26.21875 16.121094 -27.484375 L 13.703125 -32.601562 C 13.128906 -33.820312 11.605469 -34.367188 10.386719 -33.789062 L 3.488281 -30.527344 C 3.300781 -30.441406 3.089844 -30.515625 3.023438 -30.65625 L 1.5625 -33.753906 C 1.496094 -33.894531 1.523438 -34.195312 1.710938 -34.285156 Z M 1.710938 -34.285156 "/></g></g></g><path stroke-linecap="butt" transform="matrix(0.244913, -0.115744, 0.115744, 0.244913, 227.586582, 266.278605)" fill="none" stroke-linejoin="miter" d="M 103.943015 41.270198 L 142.813908 41.266341 C 148.380708 41.265484 153.014024 36.692535 153.010579 31.299956 L 153.011979 9.832515 C 153.018713 4.31715 148.378702 -0.140514 142.811902 -0.139657 L 64.450739 -0.137563 C 56.58753 -0.137398 50.453473 5.991151 50.455391 10.441984 L 50.459806 135.169606 C 50.452772 146.490467 56.581321 152.624524 64.44453 152.624359 L 142.818731 152.628426 C 148.385531 152.627569 153.016259 148.228842 153.015402 142.662042 L 153.022964 121.181562 C 153.022107 115.614762 148.387986 110.84089 142.821186 110.841748 L 103.937255 110.839443 C 103.18277 110.84972 102.576603 110.276159 102.57865 109.495598 L 102.584158 97.232992 C 102.573881 96.478506 103.179678 95.871625 103.928003 95.874386 L 132.097412 95.869114 C 137.103148 95.874245 141.316496 91.852453 141.311892 86.69857 L 141.319281 65.792193 C 141.318966 60.831732 137.103752 56.622671 132.098016 56.61754 L 103.928607 56.622812 C 103.180283 56.620051 102.573402 56.014254 102.586613 55.446313 L 102.577383 42.809902 C 102.584432 42.254999 103.188529 41.280474 103.943015 41.270198 Z M 103.943015 41.270198 " stroke="#b2edef" stroke-width="3.114264" stroke-opacity="1" stroke-miterlimit="4"/><g fill="#ffa7e4" fill-opacity="1"><g transform="translate(289.868194, 278.843124)"><g><path d="M 9.34375 -53.757812 L -16.308594 -38.894531 C -18.027344 -37.898438 -18.664062 -35.65625 -17.640625 -33.894531 L -14.050781 -27.695312 C -13.054688 -25.976562 -10.769531 -25.367188 -9.046875 -26.363281 L -2.804688 -29.980469 C -2.625 -30.085938 -2.382812 -29.980469 -2.304688 -29.847656 L 9.4375 -9.578125 C 10.433594 -7.859375 12.675781 -7.222656 14.484375 -8.269531 L 20.640625 -11.835938 C 22.359375 -12.832031 22.96875 -15.117188 21.972656 -16.835938 L 10.226562 -37.105469 C 10.148438 -37.242188 10.226562 -37.527344 10.40625 -37.632812 L 16.605469 -41.226562 C 18.324219 -42.222656 18.933594 -44.507812 17.9375 -46.226562 L 14.347656 -52.425781 C 13.324219 -54.191406 11.0625 -54.753906 9.34375 -53.757812 Z M 9.34375 -53.757812 "/></g></g></g><path stroke-linecap="butt" transform="matrix(0.236091, -0.136776, 0.136776, 0.236091, 269.333336, 240.984534)" fill="none" stroke-linejoin="miter" d="M 130.54072 -0.317838 L 21.902226 -0.316731 C 14.609146 -0.322758 8.470514 5.618046 8.465081 13.110017 L 8.467254 39.352463 C 8.473615 46.65272 14.600922 52.783581 21.901179 52.77722 L 48.335338 52.78684 C 49.130901 52.784463 49.694752 53.524759 49.698501 54.089479 L 49.696433 139.942958 C 49.690406 147.236039 55.63121 153.374671 63.309684 153.372332 L 89.365627 153.37793 C 96.614367 153.374815 102.745228 147.247508 102.751255 139.954428 L 102.740935 54.093772 C 102.749574 53.536229 103.546004 52.789806 104.297226 52.778286 L 130.539672 52.776113 C 137.832753 52.78214 143.963614 46.654833 143.969641 39.361753 L 143.974644 13.106919 C 143.960513 5.620159 137.840977 -0.324199 130.54072 -0.317838 Z M 130.54072 -0.317838 " stroke="#ff66c4" stroke-width="3.114264" stroke-opacity="1" stroke-miterlimit="4"/><g clip-path="url(#4bd9fd85d2)"><g clip-path="url(#840343c4af)"><g clip-path="url(#bb285c6634)"><path fill="#ff66c4" d="M 44.570312 252.242188 C 44.144531 250.429688 44.382812 248.660156 44.992188 246.921875 C 45.648438 245.054688 46.597656 243.335938 47.769531 241.742188 C 49.292969 239.671875 50.851562 237.628906 52.386719 235.566406 C 53.414062 234.191406 54.328125 232.742188 55.183594 231.253906 C 56.109375 229.644531 56.4375 227.957031 55.925781 226.140625 C 55.78125 225.628906 55.6875 225.09375 55.613281 224.5625 C 55.558594 224.128906 55.519531 223.675781 55.5625 223.242188 C 55.679688 222.117188 56.652344 221.085938 57.738281 220.871094 C 58.796875 220.664062 59.867188 221.203125 60.386719 222.246094 C 60.511719 222.5 60.636719 222.757812 60.777344 223 C 61.222656 223.757812 61.945312 224.054688 62.78125 223.769531 C 63.136719 223.652344 63.472656 223.453125 63.785156 223.242188 C 64.554688 222.722656 65.164062 222.027344 65.730469 221.296875 C 66.816406 219.882812 67.726562 218.355469 68.515625 216.765625 C 69.320312 215.148438 70.066406 213.5 70.851562 211.875 C 72.152344 209.183594 73.867188 206.808594 76.21875 204.925781 C 77.316406 204.050781 78.480469 203.289062 79.855469 202.925781 C 82.21875 202.300781 84.296875 203.238281 85.476562 205.457031 C 85.730469 205.933594 85.859375 206.457031 85.851562 207.003906 C 85.84375 208.210938 84.929688 209.210938 83.746094 209.296875 C 82.855469 209.363281 82.152344 209.015625 81.644531 208.28125 C 81.46875 208.03125 81.308594 207.773438 81.148438 207.527344 C 80.5 207.644531 80.03125 207.988281 79.585938 208.332031 C 78.425781 209.230469 77.40625 210.261719 76.585938 211.492188 C 75.875 212.554688 75.292969 213.675781 74.765625 214.828125 C 73.855469 216.816406 72.957031 218.8125 71.863281 220.710938 C 70.914062 222.363281 69.902344 223.976562 68.609375 225.394531 C 67.882812 226.195312 67.070312 226.902344 66.15625 227.484375 C 64.753906 228.382812 63.238281 228.855469 61.566406 228.6875 C 61.417969 228.671875 61.269531 228.6875 61.1875 228.6875 C 60.933594 229.667969 60.738281 230.597656 60.449219 231.496094 C 60.039062 232.769531 59.363281 233.925781 58.660156 235.058594 C 57.199219 237.40625 55.574219 239.636719 53.867188 241.808594 C 52.808594 243.15625 51.757812 244.511719 50.871094 245.984375 C 50.28125 246.964844 49.789062 247.992188 49.476562 249.097656 C 49.222656 250.011719 49.21875 250.914062 49.574219 251.796875 C 49.914062 252.648438 50.398438 253.359375 51.378906 253.554688 C 51.472656 253.574219 51.5625 253.601562 51.648438 253.644531 C 53.386719 254.503906 53.4375 256.484375 52.414062 257.535156 C 51.785156 258.183594 51.035156 258.417969 50.171875 258.269531 C 48.71875 258.019531 47.519531 257.308594 46.554688 256.207031 C 45.582031 255.097656 44.949219 253.808594 44.570312 252.242188 Z M 71.734375 204.449219 C 68.894531 206.695312 66.957031 209.523438 65.46875 212.695312 C 64.644531 214.445312 63.800781 216.1875 62.902344 217.894531 C 62.386719 218.875 61.738281 219.785156 61.148438 220.726562 C 61.082031 220.828125 60.984375 220.910156 60.863281 221.042969 C 60.710938 220.914062 60.570312 220.808594 60.441406 220.691406 C 59.671875 220.003906 58.78125 219.699219 57.742188 219.804688 C 56.453125 219.9375 55.167969 220.097656 53.875 220.1875 C 51.609375 220.339844 50.460938 222.425781 50.421875 223.96875 C 50.40625 224.503906 50.480469 225.042969 50.558594 225.570312 C 50.644531 226.164062 50.777344 226.753906 50.894531 227.339844 C 51.109375 228.402344 50.992188 229.429688 50.492188 230.390625 C 49.980469 231.371094 49.460938 232.363281 48.832031 233.269531 C 47.53125 235.148438 46.148438 236.96875 44.808594 238.820312 C 43.78125 240.234375 42.726562 241.628906 41.765625 243.082031 C 40.707031 244.675781 39.929688 246.417969 39.472656 248.277344 C 38.726562 251.324219 39.316406 254.113281 41.117188 256.636719 C 42.261719 258.238281 43.796875 259.273438 45.753906 259.625 C 46.125 259.691406 46.511719 259.71875 46.882812 259.6875 C 48.269531 259.570312 49.65625 259.4375 51.035156 259.277344 C 52.210938 259.140625 53.113281 258.558594 53.683594 257.496094 C 54.648438 255.695312 53.898438 253.542969 52.027344 252.742188 C 51.941406 252.703125 51.851562 252.671875 51.757812 252.65625 C 51.046875 252.53125 50.714844 252.027344 50.476562 251.410156 C 50.203125 250.695312 50.234375 249.984375 50.449219 249.269531 C 50.761719 248.230469 51.234375 247.265625 51.800781 246.34375 C 52.769531 244.769531 53.933594 243.339844 55.054688 241.878906 C 56.644531 239.816406 58.179688 237.714844 59.542969 235.492188 C 60.625 233.730469 61.570312 231.90625 61.921875 229.8125 C 62.164062 229.765625 62.378906 229.707031 62.59375 229.695312 C 64.699219 229.542969 66.472656 228.625 68.050781 227.269531 C 69.335938 226.164062 70.375 224.847656 71.3125 223.4375 C 72.882812 221.078125 74.128906 218.550781 75.289062 215.976562 C 75.941406 214.53125 76.59375 213.082031 77.539062 211.792969 C 77.855469 211.363281 78.21875 210.964844 78.554688 210.554688 C 80.378906 210.703125 82.160156 210.382812 83.941406 210.183594 C 85.789062 209.976562 86.917969 208.390625 86.742188 206.527344 C 86.550781 204.515625 84.453125 201.746094 81.210938 201.796875 C 80.832031 201.804688 80.453125 201.84375 80.078125 201.878906 C 79.132812 201.96875 78.191406 202.101562 77.246094 202.152344 C 75.449219 202.257812 73.875 202.941406 72.414062 203.949219 C 72.203125 204.09375 72 204.246094 71.734375 204.449219 " fill-opacity="1" fill-rule="nonzero"/></g></g></g></svg>