<svg xmlns="http://www.w3.org/2000/svg" xmlns:xlink="http://www.w3.org/1999/xlink" width="500" zoomAndPan="magnify" viewBox="0 0 375 374.999991" height="500" preserveAspectRatio="xMidYMid meet" version="1.0"><defs><g/><clipPath id="b4f2086265"><path d="M 17.25 0 L 357.75 0 C 362.324219 0 366.710938 1.816406 369.949219 5.050781 C 373.183594 8.289062 375 12.675781 375 17.25 L 375 357.75 C 375 362.324219 373.183594 366.710938 369.949219 369.949219 C 366.710938 373.183594 362.324219 375 357.75 375 L 17.25 375 C 12.675781 375 8.289062 373.183594 5.050781 369.949219 C 1.816406 366.710938 0 362.324219 0 357.75 L 0 17.25 C 0 12.675781 1.816406 8.289062 5.050781 5.050781 C 8.289062 1.816406 12.675781 0 17.25 0 " clip-rule="nonzero"/></clipPath><clipPath id="192313ed2d"><path d="M 37.5 37.5 L 150 37.5 L 150 150 L 37.5 150 Z M 37.5 37.5 " clip-rule="nonzero"/></clipPath><clipPath id="4f1f43f1ab"><path d="M 54.75 37.5 L 132.75 37.5 C 137.324219 37.5 141.710938 39.316406 144.949219 42.550781 C 148.183594 45.789062 150 50.175781 150 54.75 L 150 132.75 C 150 137.324219 148.183594 141.710938 144.949219 144.949219 C 141.710938 148.183594 137.324219 150 132.75 150 L 54.75 150 C 50.175781 150 45.789062 148.183594 42.550781 144.949219 C 39.316406 141.710938 37.5 137.324219 37.5 132.75 L 37.5 54.75 C 37.5 50.175781 39.316406 45.789062 42.550781 42.550781 C 45.789062 39.316406 50.175781 37.5 54.75 37.5 " clip-rule="nonzero"/></clipPath><clipPath id="b89d4128ed"><path d="M 322.140625 237 L 347.640625 237 L 347.640625 306.765625 L 322.140625 306.765625 Z M 322.140625 237 " clip-rule="nonzero"/></clipPath><clipPath id="0767bdc729"><path d="M 35.390625 236 L 60.621094 236 L 60.621094 306.3125 L 35.390625 306.3125 Z M 35.390625 236 " clip-rule="nonzero"/></clipPath><clipPath id="ea4ef7ca4f"><path d="M 225 37.5 L 337.5 37.5 L 337.5 150 L 225 150 Z M 225 37.5 " clip-rule="nonzero"/></clipPath><clipPath id="3683a807c7"><path d="M 242.25 37.5 L 320.25 37.5 C 324.824219 37.5 329.210938 39.316406 332.449219 42.550781 C 335.683594 45.789062 337.5 50.175781 337.5 54.75 L 337.5 132.75 C 337.5 137.324219 335.683594 141.710938 332.449219 144.949219 C 329.210938 148.183594 324.824219 150 320.25 150 L 242.25 150 C 237.675781 150 233.289062 148.183594 230.050781 144.949219 C 226.816406 141.710938 225 137.324219 225 132.75 L 225 54.75 C 225 50.175781 226.816406 45.789062 230.050781 42.550781 C 233.289062 39.316406 237.675781 37.5 242.25 37.5 " clip-rule="nonzero"/></clipPath></defs><g clip-path="url(#b4f2086265)"><path fill="#000000" d="M 0 0 L 374.414062 0 L 374.414062 374.414062 L 0 374.414062 Z M 0 0 " fill-opacity="1" fill-rule="nonzero"/></g><g clip-path="url(#192313ed2d)"><g clip-path="url(#4f1f43f1ab)"><path fill="#ffffff" d="M 37.5 37.5 L 150 37.5 L 150 150 L 37.5 150 Z M 37.5 37.5 " fill-opacity="1" fill-rule="nonzero"/></g></g><g clip-path="url(#b89d4128ed)"><path fill="#b2edef" d="M 332.75 300.636719 C 334.234375 299.511719 335.175781 297.992188 335.8125 296.265625 C 336.496094 294.410156 336.863281 292.476562 336.972656 290.503906 C 337.113281 287.9375 337.214844 285.367188 337.34375 282.800781 C 337.429688 281.085938 337.644531 279.386719 337.933594 277.695312 C 338.246094 275.863281 339.070312 274.351562 340.617188 273.28125 C 341.058594 272.976562 341.472656 272.625 341.863281 272.261719 C 342.1875 271.960938 342.503906 271.640625 342.746094 271.277344 C 343.375 270.332031 343.277344 268.917969 342.578125 268.0625 C 341.894531 267.226562 340.726562 266.964844 339.660156 267.4375 C 339.402344 267.550781 339.144531 267.671875 338.878906 267.769531 C 338.054688 268.070312 337.308594 267.839844 336.84375 267.085938 C 336.648438 266.769531 336.511719 266.402344 336.40625 266.039062 C 336.144531 265.148438 336.113281 264.226562 336.148438 263.300781 C 336.207031 261.519531 336.480469 259.761719 336.882812 258.03125 C 337.292969 256.273438 337.765625 254.527344 338.195312 252.773438 C 338.910156 249.871094 339.097656 246.949219 338.484375 244 C 338.195312 242.625 337.78125 241.296875 336.957031 240.140625 C 335.535156 238.15625 333.332031 237.550781 331.011719 238.511719 C 330.507812 238.71875 330.078125 239.042969 329.734375 239.464844 C 328.972656 240.402344 329.039062 241.753906 329.898438 242.574219 C 330.542969 243.191406 331.308594 243.375 332.167969 243.132812 C 332.460938 243.046875 332.75 242.953125 333.027344 242.867188 C 333.453125 243.371094 333.59375 243.933594 333.71875 244.484375 C 334.042969 245.914062 334.171875 247.355469 334.019531 248.828125 C 333.890625 250.097656 333.625 251.335938 333.296875 252.5625 C 332.734375 254.675781 332.15625 256.78125 331.789062 258.941406 C 331.46875 260.824219 331.222656 262.710938 331.316406 264.625 C 331.367188 265.707031 331.542969 266.769531 331.875 267.800781 C 332.386719 269.386719 333.25 270.714844 334.652344 271.652344 C 334.773438 271.734375 334.878906 271.839844 334.941406 271.890625 C 334.511719 272.808594 334.074219 273.652344 333.722656 274.527344 C 333.222656 275.769531 333.007812 277.09375 332.832031 278.414062 C 332.460938 281.152344 332.296875 283.90625 332.226562 286.671875 C 332.183594 288.382812 332.132812 290.097656 331.878906 291.796875 C 331.707031 292.929688 331.433594 294.035156 330.96875 295.085938 C 330.585938 295.953125 330.011719 296.648438 329.175781 297.105469 C 328.371094 297.542969 327.546875 297.785156 326.664062 297.3125 C 326.582031 297.265625 326.492188 297.230469 326.402344 297.207031 C 324.511719 296.765625 323.210938 298.257812 323.332031 299.722656 C 323.40625 300.621094 323.832031 301.28125 324.59375 301.714844 C 325.875 302.445312 327.25 302.660156 328.695312 302.429688 C 330.152344 302.191406 331.460938 301.601562 332.75 300.636719 Z M 342.246094 246.488281 C 343.003906 250.027344 342.695312 253.441406 341.828125 256.835938 C 341.347656 258.710938 340.886719 260.589844 340.492188 262.480469 C 340.265625 263.5625 340.183594 264.679688 340.042969 265.78125 C 340.027344 265.902344 340.050781 266.027344 340.058594 266.203125 C 340.257812 266.203125 340.433594 266.210938 340.609375 266.203125 C 341.640625 266.160156 342.523438 266.496094 343.25 267.238281 C 344.160156 268.160156 345.054688 269.105469 345.992188 269.996094 C 347.640625 271.554688 347.195312 273.894531 346.246094 275.113281 C 345.917969 275.53125 345.515625 275.902344 345.121094 276.257812 C 344.675781 276.664062 344.199219 277.03125 343.734375 277.410156 C 342.894531 278.089844 342.328125 278.960938 342.101562 280.015625 C 341.871094 281.097656 341.640625 282.195312 341.546875 283.296875 C 341.355469 285.570312 341.261719 287.855469 341.117188 290.136719 C 341.003906 291.878906 340.933594 293.625 340.746094 295.359375 C 340.546875 297.261719 340.039062 299.097656 339.207031 300.824219 C 337.839844 303.648438 335.609375 305.425781 332.613281 306.222656 C 330.710938 306.730469 328.867188 306.550781 327.132812 305.574219 C 326.808594 305.390625 326.492188 305.164062 326.226562 304.902344 C 325.230469 303.929688 324.25 302.945312 323.285156 301.941406 C 322.46875 301.085938 322.140625 300.0625 322.378906 298.882812 C 322.78125 296.878906 324.730469 295.695312 326.683594 296.269531 C 326.773438 296.296875 326.863281 296.328125 326.945312 296.375 C 327.574219 296.730469 328.148438 296.554688 328.726562 296.230469 C 329.390625 295.855469 329.824219 295.285156 330.113281 294.597656 C 330.53125 293.601562 330.78125 292.554688 330.933594 291.480469 C 331.191406 289.652344 331.203125 287.808594 331.265625 285.96875 C 331.355469 283.367188 331.507812 280.769531 331.875 278.1875 C 332.164062 276.136719 332.597656 274.128906 333.660156 272.289062 C 333.5 272.101562 333.371094 271.921875 333.21875 271.773438 C 331.6875 270.316406 330.90625 268.476562 330.554688 266.425781 C 330.269531 264.757812 330.304688 263.082031 330.480469 261.398438 C 330.769531 258.578125 331.417969 255.835938 332.164062 253.109375 C 332.582031 251.582031 333 250.050781 333.09375 248.453125 C 333.125 247.917969 333.097656 247.382812 333.097656 246.851562 C 331.597656 245.804688 330.429688 244.421875 329.183594 243.132812 C 327.890625 241.800781 328.03125 239.855469 329.351562 238.53125 C 330.78125 237.101562 334.160156 236.304688 336.628906 238.410156 C 336.917969 238.65625 337.183594 238.925781 337.449219 239.195312 C 338.121094 239.867188 338.765625 240.566406 339.460938 241.210938 C 340.78125 242.433594 341.558594 243.960938 342.042969 245.671875 C 342.109375 245.914062 342.167969 246.164062 342.246094 246.488281 " fill-opacity="1" fill-rule="nonzero"/></g><g fill="#ffa7e4" fill-opacity="1"><g transform="translate(120.052076, 290.935158)"><g><path d="M 5.4375 0.0507812 L 11.921875 0.0507812 C 14.117188 0.0507812 15.6875 -1.726562 15.6875 -3.710938 L 15.6875 -38.066406 C 15.6875 -40.261719 14.117188 -41.832031 11.921875 -41.832031 L 5.4375 -41.832031 C 3.398438 -41.832031 1.726562 -40.261719 1.726562 -38.066406 L 1.726562 -3.710938 C 1.726562 -1.726562 3.398438 0.0507812 5.4375 0.0507812 Z M 5.4375 0.0507812 "/></g></g></g><path stroke-linecap="butt" transform="matrix(0.272849, 0, 0, 0.272849, 120.626437, 247.882983)" fill="none" stroke-linejoin="miter" d="M 24.418715 153.186137 L 48.184138 153.186137 C 56.230022 153.186137 61.985263 146.686437 61.985263 139.385012 L 61.985263 13.485537 C 61.985263 5.439653 56.230022 -0.315588 48.184138 -0.315588 L 24.418715 -0.315588 C 16.931175 -0.315588 10.803704 5.439653 10.803704 13.485537 L 10.803704 139.385012 C 10.803704 146.686437 16.931175 153.186137 24.418715 153.186137 Z M 24.418715 153.186137 " stroke="#ff66c4" stroke-width="3.114264" stroke-opacity="1" stroke-miterlimit="4"/><g fill="#5ce1e6" fill-opacity="1"><g transform="translate(61.964042, 290.568857)"><g><path d="M 52.949219 -35.558594 L 53.210938 -37.324219 C 53.261719 -37.53125 53.261719 -37.742188 53.261719 -38 C 53.261719 -39.921875 51.652344 -41.53125 49.730469 -41.53125 L 42.777344 -41.53125 C 41.0625 -41.476562 39.660156 -40.179688 39.402344 -38.519531 L 36.804688 -23.878906 L 36.597656 -22.839844 L 36.496094 -23.414062 L 34.46875 -38.3125 C 34.210938 -40.128906 32.757812 -41.53125 30.886719 -41.53125 L 23.414062 -41.53125 C 21.59375 -41.53125 20.089844 -40.128906 19.882812 -38.3125 L 17.648438 -22.375 L 17.390625 -23.878906 L 14.847656 -38.519531 C 14.585938 -40.179688 13.132812 -41.476562 11.421875 -41.53125 L 4.515625 -41.53125 C 2.492188 -41.53125 0.882812 -39.921875 0.882812 -38 C 0.882812 -37.742188 0.882812 -37.6875 0.933594 -37.324219 L 1.660156 -33.066406 L 3.894531 -19.414062 L 6.488281 -3.789062 C 6.851562 -1.660156 8.824219 0 11.109375 0 L 20.089844 0 C 22.476562 -0.0507812 24.449219 -1.816406 24.761719 -4.152344 L 26.214844 -16.039062 C 26.269531 -16.558594 26.578125 -16.921875 27.097656 -16.921875 C 27.566406 -16.921875 27.929688 -16.613281 28.03125 -16.144531 L 30.003906 -3.789062 C 30.472656 -1.660156 32.394531 0 34.675781 0 L 43.710938 0 C 46.046875 -0.0507812 47.96875 -1.765625 48.332031 -4.050781 Z M 52.949219 -35.558594 "/></g></g></g><path stroke-linecap="butt" transform="matrix(0.270885, 0, 0, 0.270885, 63.266513, 247.826557)" fill="none" stroke-linejoin="miter" d="M 197.252165 21.708359 L 198.189485 15.204799 C 198.37695 14.469363 198.37695 13.661825 198.37695 12.738925 C 198.37695 5.615291 192.479042 -0.325877 185.369828 -0.325877 L 159.687253 -0.325877 C 153.371157 -0.138413 148.179844 4.677971 147.242524 10.821024 L 137.653017 64.853932 L 136.903161 68.689735 L 136.484972 66.584369 L 129.044091 11.55646 C 128.06351 4.865435 122.727994 -0.325877 115.806245 -0.325877 L 88.191348 -0.325877 C 81.500323 -0.325877 75.934083 4.865435 75.184227 11.55646 L 66.950229 70.420172 L 65.969647 64.853932 L 56.567604 10.821024 C 55.630284 4.677971 50.251508 -0.138413 43.935411 -0.325877 L 18.4403 -0.325877 C 10.999419 -0.325877 5.058251 5.615291 5.058251 12.738925 C 5.058251 13.661825 5.058251 13.849289 5.245715 15.204799 L 7.913472 30.937359 L 16.14747 81.321928 L 25.736978 139.017595 C 27.092487 146.876665 34.345904 153.005297 42.810627 153.005297 L 75.934083 153.005297 C 84.788154 152.817833 92.027151 146.314273 93.209616 137.647665 L 98.530711 93.766657 C 98.775857 91.848755 99.900641 90.536507 101.818542 90.536507 C 103.54898 90.536507 104.904489 91.661291 105.279417 93.391729 L 112.532834 139.017595 C 114.263271 146.876665 121.372485 153.005297 129.793947 153.005297 L 163.148128 153.005297 C 171.757054 152.817833 178.866268 146.501737 180.178516 138.080275 Z M 197.252165 21.708359 " stroke="#b2edef" stroke-width="3.114264" stroke-opacity="1" stroke-miterlimit="4"/><g fill="#5ce1e6" fill-opacity="1"><g transform="translate(147.32049, 291.019531)"><g><path d="M 19.414062 -41.476562 L 5.449219 -41.476562 C 3.269531 -41.476562 1.714844 -39.660156 1.714844 -37.742188 L 1.714844 -3.945312 C 1.714844 -2.078125 3.269531 -0.15625 5.449219 -0.15625 L 19.414062 -0.15625 C 27.566406 -0.15625 33.796875 -6.75 33.796875 -14.585938 L 33.796875 -27.097656 C 33.796875 -34.9375 27.566406 -41.476562 19.414062 -41.476562 Z M 21.128906 -19.570312 C 21.128906 -17.390625 19.519531 -15.886719 17.390625 -15.886719 L 14.898438 -15.886719 C 14.535156 -15.886719 14.171875 -16.144531 14.171875 -16.769531 L 14.171875 -24.867188 C 14.171875 -25.539062 14.535156 -25.851562 14.898438 -25.851562 L 17.390625 -25.851562 C 19.519531 -25.851562 21.128906 -24.296875 21.128906 -22.0625 Z M 21.128906 -19.570312 "/></g></g></g><path stroke-linecap="butt" transform="matrix(0.270885, 0, 0, 0.270885, 142.731206, 248.277231)" fill="none" stroke-linejoin="miter" d="M 95.214595 -0.129366 L 43.647561 -0.129366 C 35.601027 -0.129366 29.847322 6.604919 29.847322 13.670872 L 29.847322 138.449829 C 29.847322 145.328318 35.601027 152.437532 43.647561 152.437532 L 95.214595 152.437532 C 125.295366 152.437532 148.266922 128.110466 148.266922 99.15448 L 148.266922 52.966222 C 148.266922 24.010236 125.295366 -0.129366 95.214595 -0.129366 Z M 101.530692 80.754162 C 101.530692 88.815116 95.589523 94.381357 87.716033 94.381357 L 78.559135 94.381357 C 77.189206 94.381357 75.833696 93.386355 75.833696 91.093526 L 75.833696 61.20022 C 75.833696 58.719926 77.189206 57.551881 78.559135 57.551881 L 87.716033 57.551881 C 95.589523 57.551881 101.530692 63.305585 101.530692 71.539583 Z M 101.530692 80.754162 " stroke="#b2edef" stroke-width="3.114264" stroke-opacity="1" stroke-miterlimit="4"/><g fill="#ffa7e4" fill-opacity="1"><g transform="translate(192.665764, 290.484486)"><g><path d="M 29.28125 -24.574219 L 19.921875 -24.574219 C 19.921875 -24.574219 18.824219 -24.574219 18.09375 -23.792969 C 17.464844 -23.164062 17.253906 -22.378906 17.253906 -21.910156 L 17.253906 -19.871094 C 17.253906 -18.457031 18.5625 -17.414062 19.972656 -17.414062 L 21.332031 -17.414062 L 21.332031 -15.738281 C 21.332031 -13.542969 19.554688 -12.078125 17.359375 -12.078125 C 15.214844 -12.078125 13.4375 -13.855469 13.4375 -16 L 13.4375 -25.882812 C 13.4375 -27.714844 14.953125 -29.804688 17.359375 -29.804688 C 18.773438 -29.804688 20.027344 -29.019531 20.601562 -28.078125 C 20.96875 -27.554688 21.28125 -27.503906 21.648438 -27.503906 L 30.851562 -27.503906 C 31.113281 -27.503906 31.949219 -27.554688 32.628906 -28.234375 C 33.414062 -28.96875 33.414062 -29.753906 33.414062 -30.066406 L 33.414062 -30.695312 C 33.414062 -31.425781 32.210938 -35.191406 29.699219 -37.804688 C 27.292969 -40.316406 23.738281 -42.457031 18.40625 -42.457031 L 15.632812 -42.457031 C 11.136719 -42.457031 6.796875 -40.210938 4.289062 -37.175781 C 2.039062 -34.40625 0.890625 -31.007812 0.890625 -27.921875 L 0.890625 -13.960938 C 0.890625 -10.144531 2.40625 -6.796875 4.234375 -4.652344 C 8.050781 -0.15625 12.863281 0.679688 15.007812 0.679688 L 19.085938 0.679688 C 23.53125 0.679688 27.660156 -1.515625 29.804688 -3.972656 C 32.15625 -6.640625 33.726562 -9.882812 33.726562 -13.960938 L 33.726562 -18.667969 C 33.726562 -22.328125 31.738281 -24.574219 29.28125 -24.574219 Z M 29.28125 -24.574219 "/></g></g></g><path stroke-linecap="butt" transform="matrix(0.272849, 0, 0, 0.272849, 192.822325, 247.432309)" fill="none" stroke-linejoin="miter" d="M 113.350826 62.940131 L 79.048445 62.940131 C 79.048445 62.940131 75.025503 62.940131 72.31968 65.789119 C 70.014721 68.079762 69.270262 70.986015 69.270262 72.718314 L 69.270262 80.205854 C 69.270262 85.345485 74.037663 89.182312 79.234559 89.182312 L 84.202392 89.182312 L 84.202392 95.309782 C 84.202392 103.355667 77.688375 108.738678 69.642491 108.738678 C 61.782722 108.738678 55.283022 102.238978 55.283022 94.379209 L 55.283022 58.115464 C 55.283022 51.429649 60.809199 43.755995 69.642491 43.755995 C 74.796438 43.755995 79.420674 46.647932 81.525203 50.06958 C 82.842322 51.987994 84.016277 52.217058 85.36203 52.217058 L 119.106067 52.217058 C 120.036641 52.217058 123.129009 51.987994 125.605767 49.511236 C 128.454754 46.834046 128.454754 43.942109 128.454754 42.811104 L 128.454754 40.520461 C 128.454754 37.814639 124.059583 24.013514 114.882694 14.464395 C 106.049401 5.244557 93.035685 -2.615213 73.479319 -2.615213 L 63.328906 -2.615213 C 46.807642 -2.615213 30.901989 5.616786 21.739416 16.755038 C 13.507417 26.905451 9.284044 39.360823 9.284044 50.670874 L 9.284044 101.809482 C 9.284044 115.811039 14.81022 128.108929 21.553301 135.925749 C 35.540541 152.432696 53.178493 155.482115 61.038263 155.482115 L 75.956076 155.482115 C 92.248276 155.482115 107.40947 147.436231 115.26924 138.445456 C 123.873468 128.667273 129.628709 116.784562 129.628709 101.809482 L 129.628709 84.601026 C 129.628709 71.17213 122.327284 62.940131 113.350826 62.940131 Z M 113.350826 62.940131 " stroke="#ff66c4" stroke-width="3.114264" stroke-opacity="1" stroke-miterlimit="4"/><g fill="#5ce1e6" fill-opacity="1"><g transform="translate(243.140243, 291.019531)"><g><path d="M 16.195312 -30.265625 L 26.734375 -30.265625 C 28.242188 -30.265625 29.484375 -31.511719 29.484375 -32.964844 L 29.484375 -38.777344 C 29.484375 -40.285156 28.242188 -41.476562 26.734375 -41.476562 L 5.503906 -41.476562 C 3.375 -41.476562 1.714844 -39.816406 1.714844 -38.621094 L 1.714844 -4.828125 C 1.714844 -1.765625 3.375 -0.105469 5.503906 -0.105469 L 26.734375 -0.105469 C 28.242188 -0.105469 29.484375 -1.296875 29.484375 -2.804688 L 29.484375 -8.617188 C 29.484375 -10.121094 28.242188 -11.421875 26.734375 -11.421875 L 16.195312 -11.421875 C 15.988281 -11.421875 15.832031 -11.578125 15.832031 -11.785156 L 15.832031 -15.105469 C 15.832031 -15.3125 15.988281 -15.46875 16.195312 -15.46875 L 23.828125 -15.46875 C 25.175781 -15.46875 26.320312 -16.558594 26.320312 -17.960938 L 26.320312 -23.621094 C 26.320312 -24.96875 25.175781 -26.113281 23.828125 -26.113281 L 16.195312 -26.113281 C 15.988281 -26.113281 15.832031 -26.269531 15.832031 -26.421875 L 15.832031 -29.851562 C 15.832031 -30.003906 15.988281 -30.265625 16.195312 -30.265625 Z M 16.195312 -30.265625 "/></g></g></g><path stroke-linecap="butt" transform="matrix(0.270885, 0, 0, 0.270885, 232.968184, 248.277231)" fill="none" stroke-linejoin="miter" d="M 103.929277 41.271349 L 142.820858 41.271349 C 148.387098 41.271349 153.016018 36.68569 153.016018 31.306913 L 153.016018 9.835069 C 153.016018 4.31209 148.387098 -0.129366 142.820858 -0.129366 L 64.446464 -0.129366 C 56.587394 -0.129366 50.458762 5.999266 50.458762 10.440722 L 50.458762 135.176419 C 50.458762 146.496363 56.587394 152.624996 64.446464 152.624996 L 142.820858 152.624996 C 148.387098 152.624996 153.016018 148.226801 153.016018 142.66056 L 153.016018 121.188716 C 153.016018 115.622476 148.387098 110.849353 142.820858 110.849353 L 103.929277 110.849353 C 103.179421 110.849353 102.573768 110.286961 102.573768 109.493843 L 102.573768 97.236578 C 102.573768 96.486722 103.179421 95.866649 103.929277 95.866649 L 132.106567 95.866649 C 137.110415 95.866649 141.321146 91.843382 141.321146 86.709751 L 141.321146 65.785879 C 141.321146 60.825291 137.110415 56.61456 132.106567 56.61456 L 103.929277 56.61456 C 103.179421 56.61456 102.573768 56.008907 102.573768 55.446515 L 102.573768 42.814322 C 102.573768 42.25193 103.179421 41.271349 103.929277 41.271349 Z M 103.929277 41.271349 " stroke="#b2edef" stroke-width="3.114264" stroke-opacity="1" stroke-miterlimit="4"/><g fill="#ffa7e4" fill-opacity="1"><g transform="translate(280.040398, 291.385861)"><g><path d="M 35.035156 -41.832031 L 5.386719 -41.832031 C 3.398438 -41.832031 1.726562 -40.210938 1.726562 -38.171875 L 1.726562 -31.007812 C 1.726562 -29.019531 3.398438 -27.347656 5.386719 -27.347656 L 12.601562 -27.347656 C 12.8125 -27.347656 12.96875 -27.136719 12.96875 -26.980469 L 12.96875 -3.554688 C 12.96875 -1.570312 14.589844 0.105469 16.679688 0.105469 L 23.792969 0.105469 C 25.777344 0.105469 27.453125 -1.570312 27.453125 -3.554688 L 27.453125 -26.980469 C 27.453125 -27.136719 27.660156 -27.347656 27.871094 -27.347656 L 35.035156 -27.347656 C 37.019531 -27.347656 38.695312 -29.019531 38.695312 -31.007812 L 38.695312 -38.171875 C 38.695312 -40.210938 37.019531 -41.832031 35.035156 -41.832031 Z M 35.035156 -41.832031 "/></g></g></g><path stroke-linecap="butt" transform="matrix(0.272849, 0, 0, 0.272849, 281.249986, 248.333684)" fill="none" stroke-linejoin="miter" d="M 130.538078 -0.32102 L 21.904326 -0.32102 C 14.602901 -0.32102 8.475431 5.620336 8.475431 13.107876 L 8.475431 39.350057 C 8.475431 46.651482 14.602901 52.778952 21.904326 52.778952 L 48.332622 52.778952 C 49.134347 52.778952 49.692691 53.537728 49.692691 54.096072 L 49.692691 139.952241 C 49.692691 147.23935 55.634047 153.381137 63.307702 153.381137 L 89.363768 153.381137 C 96.622243 153.381137 102.749714 147.23935 102.749714 139.952241 L 102.749714 54.096072 C 102.749714 53.537728 103.537122 52.778952 104.295898 52.778952 L 130.538078 52.778952 C 137.839504 52.778952 143.966974 46.651482 143.966974 39.350057 L 143.966974 13.107876 C 143.966974 5.620336 137.839504 -0.32102 130.538078 -0.32102 Z M 130.538078 -0.32102 " stroke="#ff66c4" stroke-width="3.114264" stroke-opacity="1" stroke-miterlimit="4"/><g clip-path="url(#0767bdc729)"><path fill="#ff66c4" d="M 50.285156 300.1875 C 48.800781 299.058594 47.859375 297.542969 47.222656 295.816406 C 46.539062 293.957031 46.171875 292.027344 46.0625 290.054688 C 45.917969 287.488281 45.820312 284.917969 45.691406 282.347656 C 45.601562 280.636719 45.386719 278.933594 45.101562 277.246094 C 44.789062 275.414062 43.964844 273.902344 42.417969 272.828125 C 41.976562 272.523438 41.5625 272.175781 41.171875 271.8125 C 40.847656 271.511719 40.53125 271.1875 40.289062 270.824219 C 39.660156 269.882812 39.757812 268.46875 40.457031 267.613281 C 41.140625 266.777344 42.308594 266.515625 43.375 266.984375 C 43.632812 267.101562 43.890625 267.21875 44.15625 267.316406 C 44.980469 267.621094 45.726562 267.386719 46.191406 266.636719 C 46.386719 266.316406 46.519531 265.949219 46.628906 265.589844 C 46.890625 264.695312 46.917969 263.773438 46.886719 262.851562 C 46.828125 261.066406 46.554688 259.3125 46.152344 257.582031 C 45.742188 255.820312 45.265625 254.078125 44.835938 252.324219 C 44.125 249.421875 43.9375 246.496094 44.550781 243.550781 C 44.839844 242.171875 45.253906 240.847656 46.078125 239.691406 C 47.5 237.703125 49.703125 237.101562 52.023438 238.0625 C 52.527344 238.269531 52.957031 238.589844 53.300781 239.015625 C 54.058594 239.949219 53.992188 241.304688 53.136719 242.125 C 52.492188 242.742188 51.726562 242.921875 50.867188 242.679688 C 50.574219 242.597656 50.285156 242.503906 50.003906 242.417969 C 49.582031 242.921875 49.441406 243.484375 49.316406 244.03125 C 48.992188 245.460938 48.863281 246.90625 49.011719 248.378906 C 49.140625 249.648438 49.410156 250.882812 49.734375 252.109375 C 50.300781 254.222656 50.878906 256.332031 51.246094 258.492188 C 51.566406 260.371094 51.8125 262.257812 51.71875 264.175781 C 51.667969 265.257812 51.488281 266.320312 51.160156 267.351562 C 50.648438 268.9375 49.78125 270.265625 48.382812 271.199219 C 48.261719 271.28125 48.15625 271.390625 48.09375 271.441406 C 48.523438 272.359375 48.960938 273.199219 49.3125 274.078125 C 49.808594 275.320312 50.023438 276.640625 50.203125 277.960938 C 50.570312 280.703125 50.738281 283.457031 50.808594 286.21875 C 50.847656 287.933594 50.902344 289.648438 51.15625 291.347656 C 51.328125 292.480469 51.601562 293.582031 52.066406 294.636719 C 52.449219 295.503906 53.019531 296.199219 53.855469 296.652344 C 54.664062 297.09375 55.488281 297.335938 56.371094 296.859375 C 56.453125 296.816406 56.542969 296.78125 56.632812 296.757812 C 58.523438 296.316406 59.820312 297.808594 59.703125 299.269531 C 59.628906 300.171875 59.203125 300.828125 58.441406 301.265625 C 57.160156 301.996094 55.785156 302.210938 54.339844 301.976562 C 52.882812 301.742188 51.574219 301.152344 50.285156 300.1875 Z M 40.789062 246.035156 C 40.03125 249.578125 40.335938 252.988281 41.207031 256.386719 C 41.6875 258.257812 42.148438 260.136719 42.542969 262.03125 C 42.769531 263.113281 42.851562 264.226562 42.992188 265.328125 C 43.007812 265.449219 42.984375 265.578125 42.976562 265.753906 C 42.777344 265.753906 42.601562 265.757812 42.425781 265.75 C 41.394531 265.710938 40.511719 266.046875 39.78125 266.789062 C 38.871094 267.710938 37.980469 268.652344 37.039062 269.542969 C 35.394531 271.105469 35.835938 273.445312 36.789062 274.660156 C 37.117188 275.082031 37.519531 275.449219 37.914062 275.808594 C 38.359375 276.210938 38.835938 276.578125 39.300781 276.957031 C 40.140625 277.640625 40.707031 278.507812 40.929688 279.566406 C 41.164062 280.648438 41.394531 281.742188 41.484375 282.84375 C 41.679688 285.121094 41.773438 287.40625 41.917969 289.6875 C 42.027344 291.429688 42.101562 293.175781 42.285156 294.910156 C 42.488281 296.8125 42.996094 298.648438 43.828125 300.375 C 45.195312 303.199219 47.425781 304.976562 50.421875 305.773438 C 52.324219 306.277344 54.164062 306.097656 55.898438 305.121094 C 56.226562 304.9375 56.542969 304.714844 56.808594 304.453125 C 57.800781 303.476562 58.785156 302.492188 59.75 301.488281 C 60.566406 300.636719 60.894531 299.613281 60.65625 298.429688 C 60.253906 296.429688 58.304688 295.246094 56.351562 295.820312 C 56.261719 295.847656 56.171875 295.878906 56.089844 295.925781 C 55.460938 296.28125 54.886719 296.105469 54.308594 295.777344 C 53.644531 295.40625 53.210938 294.835938 52.921875 294.148438 C 52.503906 293.148438 52.253906 292.101562 52.101562 291.03125 C 51.84375 289.203125 51.832031 287.359375 51.769531 285.519531 C 51.679688 282.914062 51.523438 280.316406 51.160156 277.738281 C 50.871094 275.6875 50.4375 273.679688 49.375 271.839844 C 49.535156 271.652344 49.660156 271.472656 49.816406 271.324219 C 51.347656 269.867188 52.128906 268.027344 52.480469 265.976562 C 52.765625 264.304688 52.730469 262.632812 52.554688 260.945312 C 52.265625 258.128906 51.613281 255.386719 50.871094 252.660156 C 50.449219 251.128906 50.03125 249.597656 49.941406 248.003906 C 49.910156 247.46875 49.9375 246.929688 49.9375 246.398438 C 51.4375 245.355469 52.605469 243.972656 53.851562 242.683594 C 55.144531 241.347656 55.003906 239.402344 53.679688 238.082031 C 52.253906 236.652344 48.875 235.851562 46.40625 237.957031 C 46.117188 238.203125 45.851562 238.476562 45.582031 238.746094 C 44.914062 239.414062 44.269531 240.113281 43.574219 240.757812 C 42.253906 241.984375 41.476562 243.511719 40.992188 245.222656 C 40.925781 245.464844 40.867188 245.710938 40.789062 246.035156 " fill-opacity="1" fill-rule="nonzero"/></g><g clip-path="url(#ea4ef7ca4f)"><g clip-path="url(#3683a807c7)"><path fill="#ffffff" d="M 225 37.5 L 337.5 37.5 L 337.5 150 L 225 150 Z M 225 37.5 " fill-opacity="1" fill-rule="nonzero"/></g></g></svg>